<svg width="200" height="200" viewBox="0 0 200 200" fill="none" xmlns="http://www.w3.org/2000/svg">
  <circle cx="80" cy="100" r="60" fill="#FF4458" fill-opacity="0.2" />
  <circle cx="120" cy="100" r="60" fill="#FF7854" fill-opacity="0.2" />

  <circle cx="80" cy="100" r="60" stroke="#FF4458" stroke-width="8" />
  <circle cx="120" cy="100" r="60" stroke="#FF7854" stroke-width="8" />

  <path
    d="M115 85C115 73.402 124.402 64 136 64C147.598 64 157 73.402 157 85C157 93.308 152.128 100.48 145.106 103.884V112H126.894V103.884C119.872 100.48 115 93.308 115 85Z"
    fill="#FF7854" />
  <rect x="129" y="115" width="14" height="4" rx="2" fill="#FF7854" />

  <path
    d="M68 65C68 65 45 78 45 98C45 110.15 54.85 120 67 120C79.15 120 89 110.15 89 98C89 85 78 65 68 65Z"
    fill="#FF4458" />
  <path
    d="M68 85C68 85 58 92 58 101C58 106.523 62.477 111 68 111C73.523 111 78 106.523 78 101C78 95 68 85 68 85Z"
    fill="white" />
</svg>